HIERARCHY
ROOT Hips
{
    OFFSET   0.000000   0.000000   0.000000
    CHANNELS 6 Xposition Yposition Zposition Zrotation Xrotation Yrotation
    JOINT Chest
    {
        OFFSET   0.000000   8.007230   0.000000
        CHANNELS 3 Zrotation Xrotation Yrotation
        JOINT Chest2
        {
            OFFSET   0.000000  22.077100   0.000000
            CHANNELS 3 Zrotation Xrotation Yrotation
            JOINT Neck
            {
                OFFSET   0.000000  23.255100   0.000000
                CHANNELS 3 Zrotation Xrotation Yrotation
                JOINT Head
                {
                    OFFSET   0.000000  14.370100   1.956600
                    CHANNELS 3 Zrotation Xrotation Yrotation
                    End Site
                    {
                        OFFSET   0.000000  19.566000   0.000000
                    }
                }
            }
            JOINT LeftCollar
            {
                OFFSET   3.911900  19.017000  -0.467063
                CHANNELS 3 Zrotation Xrotation Yrotation
                JOINT LeftShoulder
                {
                    OFFSET  10.383700   0.000000   0.000000
                    CHANNELS 3 Zrotation Xrotation Yrotation
                    JOINT LeftElbow
                    {
                        OFFSET  26.662100   0.001193   0.000980
                        CHANNELS 3 Zrotation Xrotation Yrotation
                        JOINT LeftWrist
                        {
                            OFFSET  28.869000  -0.000059  -0.000082
                            CHANNELS 3 Zrotation Xrotation Yrotation
                            JOINT LeftFinger0
                            {
                                OFFSET   2.044650  -2.323450   3.252850
                                CHANNELS 3 Zrotation Xrotation Yrotation
                                JOINT LeftFinger01
                                {
                                    OFFSET   3.088130   0.000000   0.000000
                                    CHANNELS 3 Zrotation Xrotation Yrotation
                                    JOINT LeftFinger02
                                    {
                                        OFFSET   2.639460   0.000000   0.000000
                                        CHANNELS 3 Zrotation Xrotation Yrotation
                                        End Site
                                        {
                                            OFFSET   2.582190   0.000000   0.000000
                                        }
                                    }
                                }
                            }
                            JOINT LeftFinger1
                            {
                                OFFSET   8.364480   0.000000   3.252850
                                CHANNELS 3 Zrotation Xrotation Yrotation
                                JOINT LeftFinger11
                                {
                                    OFFSET   4.646930   0.000000   0.000000
                                    CHANNELS 3 Zrotation Xrotation Yrotation
                                    JOINT LeftFinger12
                                    {
                                        OFFSET   2.323470   0.000000   0.000000
                                        CHANNELS 3 Zrotation Xrotation Yrotation
                                        End Site
                                        {
                                            OFFSET   2.273050   0.000000   0.000000
                                        }
                                    }
                                }
                            }
                            JOINT LeftFinger2
                            {
                                OFFSET   8.364490   0.000016   1.078090
                                CHANNELS 3 Zrotation Xrotation Yrotation
                                JOINT LeftFinger21
                                {
                                    OFFSET   5.111610   0.000000   0.000000
                                    CHANNELS 3 Zrotation Xrotation Yrotation
                                    JOINT LeftFinger22
                                    {
                                        OFFSET   2.788150   0.000016   0.000000
                                        CHANNELS 3 Zrotation Xrotation Yrotation
                                        End Site
                                        {
                                            OFFSET   2.727660   0.000000   0.000000
                                        }
                                    }
                                }
                            }
                            JOINT LeftFinger3
                            {
                                OFFSET   7.899780   0.000015  -1.078090
                                CHANNELS 3 Zrotation Xrotation Yrotation
                                JOINT LeftFinger31
                                {
                                    OFFSET   4.646930   0.000000   0.000000
                                    CHANNELS 3 Zrotation Xrotation Yrotation
                                    JOINT LeftFinger32
                                    {
                                        OFFSET   2.323470   0.000000   0.000000
                                        CHANNELS 3 Zrotation Xrotation Yrotation
                                        End Site
                                        {
                                            OFFSET   2.273050   0.000000   0.000000
                                        }
                                    }
                                }
                            }
                            JOINT LeftFinger4
                            {
                                OFFSET   7.435090   0.000000  -3.252850
                                CHANNELS 3 Zrotation Xrotation Yrotation
                                JOINT LeftFinger41
                                {
                                    OFFSET   3.717550   0.000000   0.000000
                                    CHANNELS 3 Zrotation Xrotation Yrotation
                                    JOINT LeftFinger42
                                    {
                                        OFFSET   1.858770   0.000000   0.000000
                                        CHANNELS 3 Zrotation Xrotation Yrotation
                                        End Site
                                        {
                                            OFFSET   1.818440   0.000000   0.000000
                                        }
                                    }
                                }
                            }
                        }
                    }
                }
            }
            JOINT RightCollar
            {
                OFFSET  -3.911910  19.017000  -0.467062
                CHANNELS 3 Zrotation Xrotation Yrotation
                JOINT RightShoulder
                {
                    OFFSET -10.383700   0.000014   0.000000
                    CHANNELS 3 Zrotation Xrotation Yrotation
                    JOINT RightElbow
                    {
                        OFFSET -26.662100   0.001225   0.001091
                        CHANNELS 3 Zrotation Xrotation Yrotation
                        JOINT RightWrist
                        {
                            OFFSET -28.869000  -0.000020  -0.000085
                            CHANNELS 3 Zrotation Xrotation Yrotation
                            JOINT RightFinger0
                            {
                                OFFSET  -2.044650  -2.323490   3.252850
                                CHANNELS 3 Zrotation Xrotation Yrotation
                                JOINT RightFinger01
                                {
                                    OFFSET  -3.088130   0.000000   0.000000
                                    CHANNELS 3 Zrotation Xrotation Yrotation
                                    JOINT RightFinger02
                                    {
                                        OFFSET  -2.639460   0.000000   0.000000
                                        CHANNELS 3 Zrotation Xrotation Yrotation
                                        End Site
                                        {
                                            OFFSET  -2.582190   0.000000   0.000000
                                        }
                                    }
                                }
                            }
                            JOINT RightFinger1
                            {
                                OFFSET  -8.364480   0.000000   3.252850
                                CHANNELS 3 Zrotation Xrotation Yrotation
                                JOINT RightFinger11
                                {
                                    OFFSET  -4.646930   0.000000   0.000000
                                    CHANNELS 3 Zrotation Xrotation Yrotation
                                    JOINT RightFinger12
                                    {
                                        OFFSET  -2.323470   0.000000   0.000000
                                        CHANNELS 3 Zrotation Xrotation Yrotation
                                        End Site
                                        {
                                            OFFSET  -2.273050   0.000000   0.000000
                                        }
                                    }
                                }
                            }
                            JOINT RightFinger2
                            {
                                OFFSET  -8.364480   0.000000   1.078090
                                CHANNELS 3 Zrotation Xrotation Yrotation
                                JOINT RightFinger21
                                {
                                    OFFSET  -5.111620   0.000000   0.000000
                                    CHANNELS 3 Zrotation Xrotation Yrotation
                                    JOINT RightFinger22
                                    {
                                        OFFSET  -2.788160   0.000000   0.000000
                                        CHANNELS 3 Zrotation Xrotation Yrotation
                                        End Site
                                        {
                                            OFFSET  -2.727660   0.000000   0.000000
                                        }
                                    }
                                }
                            }
                            JOINT RightFinger3
                            {
                                OFFSET  -7.899780   0.000000  -1.078090
                                CHANNELS 3 Zrotation Xrotation Yrotation
                                JOINT RightFinger31
                                {
                                    OFFSET  -4.646930   0.000000   0.000000
                                    CHANNELS 3 Zrotation Xrotation Yrotation
                                    JOINT RightFinger32
                                    {
                                        OFFSET  -2.323470   0.000000   0.000000
                                        CHANNELS 3 Zrotation Xrotation Yrotation
                                        End Site
                                        {
                                            OFFSET  -2.273050   0.000000   0.000000
                                        }
                                    }
                                }
                            }
                            JOINT RightFinger4
                            {
                                OFFSET  -7.435090   0.000000  -3.252850
                                CHANNELS 3 Zrotation Xrotation Yrotation
                                JOINT RightFinger41
                                {
                                    OFFSET  -3.717550   0.000000   0.000000
                                    CHANNELS 3 Zrotation Xrotation Yrotation
                                    JOINT RightFinger42
                                    {
                                        OFFSET  -1.858760   0.000000   0.000000
                                        CHANNELS 3 Zrotation Xrotation Yrotation
                                        End Site
                                        {
                                            OFFSET  -1.818440   0.000000   0.000000
                                        }
                                    }
                                }
                            }
                        }
                    }
                }
            }
        }
    }
    JOINT LeftHip
    {
        OFFSET   9.783030   0.000000   0.000000
        CHANNELS 3 Zrotation Xrotation Yrotation
        JOINT LeftKnee
        {
            OFFSET   0.000063 -41.789100   0.000608
            CHANNELS 3 Zrotation Xrotation Yrotation
            JOINT LeftAnkle
            {
                OFFSET   0.000048 -41.133200  -0.000184
                CHANNELS 3 Zrotation Xrotation Yrotation
                JOINT LeftToe
                {
                    OFFSET   0.000000  -6.358960  14.674500
                    CHANNELS 3 Zrotation Xrotation Yrotation
                    End Site
                    {
                        OFFSET   0.000000   0.000000   3.913200
                    }
                }
            }
        }
    }
    JOINT RightHip
    {
        OFFSET  -9.783030   0.000000   0.000000
        CHANNELS 3 Zrotation Xrotation Yrotation
        JOINT RightKnee
        {
            OFFSET   0.000071 -41.789100   0.001239
            CHANNELS 3 Zrotation Xrotation Yrotation
            JOINT RightAnkle
            {
                OFFSET   0.000037 -41.133200  -0.000166
                CHANNELS 3 Zrotation Xrotation Yrotation
                JOINT RightToe
                {
                    OFFSET   0.000000  -6.358960  14.674500
                    CHANNELS 3 Zrotation Xrotation Yrotation
                    End Site
                    {
                        OFFSET   0.000000   0.000000   3.913200
                    }
                }
            }
        }
    }
}
MOTION
Frames: 4
Frame Time:   0.016667
  0.364349  89.505800   1.369010  -0.674923  -1.774530   1.218760   1.417560   1.646290  -0.916948   2.863040   3.269160  -1.875520  -1.874660   0.059717  -0.008645  -3.079430   0.121033   3.122910  -5.402790   2.989880  12.650400 -81.885200   4.085100  -0.968016   0.172954   8.035480 -12.407200  10.523900   2.331990  -3.026430  39.666000  33.283300 -49.925900 -32.897400   0.001490   0.004163 -11.448700   0.002343   0.005707 -33.697800  -1.229940   1.843600 -27.587100  -0.004231  -0.005116 -19.311000  -0.002327  -0.008066 -28.898500  -1.054280   6.827210 -43.165200  -0.004719  -0.003550 -28.748000  -0.003009  -0.007801 -28.173600  -3.803330   7.062580 -35.106400  -0.001962  -0.001522 -23.380900   0.000311  -0.001666 -32.617100  -5.916990   9.162550 -49.636500  -0.007913   0.000000 -33.057900   0.000817  -0.012315   5.682490   4.168480   7.118790  71.858500  -6.692210  -1.725870   3.391870  -3.657550  10.927700 -21.954400  -3.315330  -2.627640 -39.248100  29.511100  70.654200  18.539000   0.006175  -0.002000   4.269530   0.004170  -0.000402  29.633600   0.203555   0.358154  24.246000   0.003763  -0.001648  16.972200   0.002194  -0.001863  28.417500  -1.402540  -2.590020  35.602200   0.003404  -0.006333  23.711100   0.012906  -0.004737  28.048600  -4.899660  -9.109820  35.427500   0.005259  -0.014048  23.594700   0.010762  -0.001290  37.057800  -6.270880  -8.230420  56.264000   0.012673  -0.013106  37.471800  -0.000066  -0.003787   2.127610   4.422650   1.442910   0.292798   0.118909  15.077600  -2.355040  -3.213810   0.511573  -0.000000   0.000000  -0.000000  -1.152130   4.577660  -2.424240   1.239430   0.167550 -14.674800   0.057661  -2.414720  -1.777220   0.000000   0.000000   0.000000
  0.364437  89.505800   1.376050  -0.673291  -1.809750   1.243460   1.417540   1.672390  -0.916587   2.863540   3.321360  -1.875090  -1.864440   0.059882  -0.008638  -3.062680   0.121346   3.134450  -5.398590   2.971860  12.643600 -81.882600   4.129500  -0.983818   0.168540   8.033580 -12.444200  10.522200   2.316180  -3.016040  39.657200  33.277400 -49.923100 -32.908200   0.001492   0.004262 -11.454100   0.002158   0.005854 -33.712800  -1.237760   1.854260 -27.599600  -0.010742  -0.005116 -19.319700  -0.005885  -0.008066 -28.900400  -1.038600   6.827430 -43.185600  -0.004719  -0.003462 -28.761500  -0.003035  -0.007679 -28.171800  -3.809640   7.073790 -35.126000  -0.001859  -0.001511 -23.394000   0.000289  -0.001662 -32.624400  -5.917910   9.158930 -49.648000  -0.007945   0.000050 -33.065600   0.000849  -0.012382   5.691970   4.105470   7.099860  71.893800  -6.547610  -1.711820   3.353600  -3.746840  10.916100 -21.901700  -3.244020  -2.690790 -39.240800  29.461300  70.594900  18.618300   0.006160  -0.002000   4.309200   0.004148  -0.000403  29.617300   0.165802   0.291443  24.232500   0.003746  -0.001644  16.962800   0.002183  -0.001856  28.413000  -1.426520  -2.635050  35.561500   0.003399  -0.006280  23.684000   0.012914  -0.004697  28.039000  -4.927100  -9.156380  35.409800   0.005196  -0.014033  23.582900   0.010769  -0.001203  37.072000  -6.311630  -8.269310  56.292200   0.012672  -0.013156  37.490500  -0.000082  -0.003744   2.124840   4.497830   1.449400   0.293443   0.045184  15.059300  -2.345530  -3.178650   0.499219  -0.000000   0.000000  -0.000000  -1.151210   4.590080  -2.429850   1.232100   0.228071 -14.659400   0.061748  -2.450890  -1.814060  -0.000000   0.000000   0.000000
  0.364558  89.505700   1.387270  -0.670677  -1.873210   1.278140   1.417790   1.719670  -0.913998   2.864780   3.415960  -1.871560  -1.844490   0.060047  -0.008618  -3.030000   0.121658   3.152020  -5.391760   2.944170  12.628200 -81.878000   4.211850  -1.019100   0.159260   8.026840 -12.501200  10.519500   2.286930  -2.998540  39.643800  33.271400 -49.920200 -32.924800   0.001503   0.004432 -11.462400   0.001821   0.006056 -33.733300  -1.252380   1.874690 -27.616700  -0.021857  -0.005117 -19.331700  -0.012758  -0.008067 -28.905100  -0.999556   6.827600 -43.212700  -0.004718  -0.003314 -28.779600  -0.003088  -0.007451 -28.168400  -3.822580   7.097160 -35.153600  -0.001642  -0.001490 -23.412300   0.000228  -0.001655 -32.634900  -5.923930   9.155390 -49.664300  -0.008017   0.000135 -33.076500   0.000910  -0.012514   5.708790   4.000850   7.070620  71.959900  -6.261970  -1.657840   3.281450  -3.917550  10.905600 -21.779800  -3.107770  -2.821660 -39.212500  29.355100  70.479200  18.729400   0.006135  -0.002000   4.364710   0.004088  -0.000407  29.570100   0.126245   0.222606  24.193800   0.003703  -0.001629  16.935700   0.002158  -0.001837  28.398100  -1.450490  -2.680410  35.415600   0.003389  -0.006174  23.586800   0.012934  -0.004617  28.020100  -4.956710  -9.222170  35.286100   0.005053  -0.014000  23.500600   0.010786  -0.001040  37.084000  -6.352060  -8.327490  56.320300   0.012670  -0.013261  37.509200  -0.000121  -0.003660   2.121050   4.599540   1.460020   0.294035  -0.028554  15.031600  -2.336350  -3.143500   0.480646   0.000000   0.000000  -0.000000  -1.149160   4.631060  -2.435570   1.224750   0.288600 -14.643900   0.065090  -2.488110  -1.866180   0.000000   0.000000   0.000000
  0.364599  89.505500   1.394950  -0.669076  -1.932410   1.293360   1.418340   1.764800  -0.908011   2.866390   3.506350  -1.861170  -1.823330   0.059658  -0.008575  -2.995290   0.120869   3.162300  -5.385670   2.926410  12.608200 -81.877000   4.292870  -1.066150   0.147809   8.015560 -12.538300  10.520000   2.254210  -2.984280  39.648200  33.290200 -49.920200 -32.934400   0.003670   0.004503 -11.467200   0.001394   0.006127 -33.737300  -1.269930   1.901520 -27.620500  -0.033765  -0.006305 -19.334300  -0.022461  -0.012727 -28.916800  -0.937306   6.827410 -43.217200  -0.007756  -0.003167 -28.782600  -0.003156  -0.007155 -28.165500  -3.839770   7.129120 -35.160600  -0.001344  -0.001462 -23.416900   0.000120  -0.001646 -32.634200  -5.943780   9.182410 -49.668000  -0.008120   0.000209 -33.078900   0.000978  -0.012670   5.731740   3.915530   7.053960  72.027600  -5.924300  -1.554740   3.206460  -4.108600  10.909800 -21.616800  -2.964140  -2.979940 -39.157200  29.240000  70.378700  18.776800   0.006112  -0.001999   4.388430   0.003987  -0.000412  29.489800   0.125043   0.221189  24.128100   0.003640  -0.001604  16.889700   0.002121  -0.001808  28.370200  -1.448490  -2.680620  35.138100   0.003373  -0.006033  23.402000   0.012964  -0.004514  27.982700  -4.959210  -9.247820  34.930400   0.004846  -0.013953  23.263700   0.010811  -0.000823  36.998500  -6.348770  -8.358440  56.195100   0.012672  -0.013403  37.425800  -0.000179  -0.003552   2.120070   4.617230   1.466660   0.290918   0.071217  15.012800  -2.348420  -3.195620   0.468754  -0.000000   0.000000   0.000000  -1.147060   4.707930  -2.425080   1.228970   0.273354 -14.649000   0.060844  -2.489330  -1.890480  -0.000000   0.000000  -0.000000
